<?xml version="1.0" encoding="utf-8"?>
<!-- Generator: Adobe Illustrator 15.1.0, SVG Export Plug-In . SVG Version: 6.00 Build 0)  -->
<!DOCTYPE svg PUBLIC "-//W3C//DTD SVG 1.1//EN" "http://www.w3.org/Graphics/SVG/1.1/DTD/svg11.dtd">
<svg version="1.1" id="Layer_1" xmlns="http://www.w3.org/2000/svg" xmlns:xlink="http://www.w3.org/1999/xlink" x="0px" y="0px"
	 width="534.817px" height="112.651px" viewBox="0 0 534.817 112.651" enable-background="new 0 0 534.817 112.651"
	 xml:space="preserve">
<g>
	<path fill="#FFFFFF" d="M169.124,71.313c-1.072,1.921-2.703,3.484-4.891,4.69c-2.189,1.206-4.891,1.809-8.107,1.809
		c-3.127,0-5.908-0.57-8.341-1.708c-2.435-1.139-4.378-2.702-5.829-4.69c-1.452-1.987-2.29-4.254-2.513-6.8h6.499
		c0.134,1.34,0.592,2.646,1.374,3.919c0.781,1.273,1.898,2.323,3.35,3.149c1.451,0.827,3.205,1.24,5.259,1.24
		c2.68,0,4.734-0.714,6.164-2.144c1.429-1.429,2.144-3.26,2.144-5.494c0-1.92-0.502-3.484-1.507-4.69s-2.245-2.154-3.719-2.848
		c-1.474-0.692-3.484-1.44-6.03-2.244c-2.993-0.982-5.394-1.91-7.203-2.781s-3.35-2.177-4.623-3.919s-1.909-4.042-1.909-6.901
		c0-2.456,0.591-4.623,1.775-6.499c1.183-1.876,2.881-3.327,5.092-4.355c2.211-1.027,4.813-1.541,7.806-1.541
		c4.645,0,8.33,1.128,11.055,3.383c2.724,2.256,4.31,5.125,4.757,8.609h-6.566c-0.358-1.876-1.318-3.528-2.881-4.958
		c-1.564-1.429-3.685-2.144-6.365-2.144c-2.457,0-4.422,0.636-5.896,1.909s-2.211,3.072-2.211,5.394c0,1.832,0.479,3.316,1.44,4.456
		c0.96,1.139,2.154,2.033,3.584,2.68c1.429,0.648,3.394,1.374,5.896,2.177c3.037,0.983,5.482,1.921,7.336,2.814
		c1.853,0.894,3.428,2.245,4.724,4.054c1.295,1.809,1.943,4.21,1.943,7.202C170.731,67.316,170.195,69.393,169.124,71.313z
		 M166.042,19.321l-14.271,7.839v-4.355l14.271-8.442V19.321z"/>
	<path fill="#FFFFFF" d="M228.15,40.56l-10.586,36.783h-6.566l-10.117-29.949l-10.184,29.949h-6.633L173.612,40.56h6.164
		l7.839,30.954l10.184-30.954h6.365l10.251,30.887l7.906-30.887H228.15z"/>
	<path fill="#FFFFFF" d="M232.639,27.059c0.759-0.692,1.764-1.038,3.015-1.038c1.25,0,2.255,0.346,3.015,1.038
		c0.759,0.693,1.139,1.598,1.139,2.714c0,1.117-0.38,2.021-1.139,2.713c-0.76,0.693-1.765,1.039-3.015,1.039
		c-1.251,0-2.256-0.346-3.015-1.039c-0.76-0.692-1.139-1.597-1.139-2.713C231.5,28.657,231.878,27.752,232.639,27.059z
		 M238.668,40.56v36.783h-6.097V40.56H238.668z"/>
	<path fill="#FFFFFF" d="M271.331,42.771c2.479,1.787,4.209,4.177,5.192,7.169v-9.38h6.097v36.783h-6.097v-9.38
		c-0.983,2.993-2.713,5.383-5.192,7.169c-2.479,1.787-5.505,2.68-9.079,2.68c-3.261,0-6.164-0.759-8.71-2.278
		c-2.546-1.518-4.545-3.695-5.997-6.532c-1.452-2.836-2.177-6.175-2.177-10.017c0-3.841,0.726-7.191,2.177-10.05
		c1.451-2.858,3.451-5.047,5.997-6.566c2.546-1.518,5.449-2.278,8.71-2.278C265.826,40.091,268.852,40.985,271.331,42.771z
		 M254.983,49.102c-2.256,2.39-3.383,5.685-3.383,9.883c0,4.199,1.127,7.494,3.383,9.882c2.255,2.39,5.26,3.584,9.012,3.584
		c2.412,0,4.566-0.558,6.465-1.675c1.898-1.116,3.384-2.69,4.456-4.724c1.072-2.032,1.608-4.389,1.608-7.068
		c0-2.68-0.536-5.047-1.608-7.102c-1.072-2.054-2.558-3.628-4.456-4.724c-1.899-1.094-4.053-1.642-6.465-1.642
		C260.243,45.518,257.238,46.713,254.983,49.102z"/>
	<path fill="#FFFFFF" d="M308.616,71.983v5.36h-4.556c-3.752,0-6.556-0.893-8.409-2.68c-1.854-1.786-2.78-4.779-2.78-8.978V45.853
		h-5.494V40.56h5.494v-9.179h6.164v9.179h9.514v5.293h-9.514v19.966c0,2.368,0.436,3.986,1.307,4.857s2.378,1.307,4.522,1.307
		H308.616z"/>
	<path fill="#FFFFFF" d="M393.504,29.974l-11.323,47.369h-14.204l-7.571-31.691l-7.638,31.691h-14.204l-11.323-47.369h12.462
		l6.097,34.304l8.308-34.304h12.529l8.308,34.304l6.164-34.304H393.504z"/>
	<path fill="#FFFFFF" d="M419.834,41.431c2.055,1.296,3.573,3.06,4.557,5.293v-6.767h11.39v37.386h-11.39v-6.767
		c-0.983,2.234-2.502,3.998-4.557,5.293c-2.055,1.296-4.512,1.943-7.37,1.943c-3.082,0-5.841-0.771-8.275-2.312
		c-2.435-1.541-4.355-3.763-5.762-6.667c-1.407-2.903-2.111-6.298-2.111-10.184c0-3.93,0.704-7.336,2.111-10.218
		c1.407-2.881,3.327-5.092,5.762-6.633c2.434-1.541,5.193-2.312,8.275-2.312C415.323,39.488,417.78,40.136,419.834,41.431z
		 M410.22,51.95c-1.497,1.608-2.245,3.842-2.245,6.7c0,2.859,0.748,5.092,2.245,6.7c1.496,1.608,3.472,2.412,5.929,2.412
		c2.412,0,4.389-0.826,5.93-2.479c1.541-1.652,2.313-3.863,2.313-6.633c0-2.814-0.771-5.036-2.313-6.667
		c-1.541-1.63-3.518-2.446-5.93-2.446C413.692,49.538,411.716,50.342,410.22,51.95z"/>
	<path fill="#FFFFFF" d="M453.871,27.763v49.58h-11.457v-49.58H453.871z"/>
	<path fill="#FFFFFF" d="M497.687,39.957v37.386h-11.523v-6.767c-1.072,2.189-2.67,3.931-4.791,5.226
		c-2.122,1.296-4.589,1.943-7.403,1.943c-4.288,0-7.694-1.429-10.218-4.288c-2.523-2.858-3.785-6.789-3.785-11.792V39.957h11.39
		v20.301c0,2.546,0.659,4.522,1.977,5.93c1.317,1.407,3.093,2.11,5.327,2.11c2.321,0,4.153-0.737,5.493-2.211
		c1.341-1.474,2.011-3.573,2.011-6.298V39.957H497.687z"/>
	<path fill="#FFFFFF" d="M525.492,67.494v9.849h-5.159c-4.378,0-7.783-1.083-10.218-3.25c-2.435-2.166-3.651-5.75-3.651-10.753
		V49.605h-5.024v-9.648h5.024v-9.179h11.457v9.179h7.504v9.648h-7.504v13.936c0,1.474,0.302,2.502,0.905,3.082
		c0.603,0.581,1.618,0.871,3.048,0.871H525.492z"/>
</g>
<g>
	<g>
		<path fill="#C31F42" d="M76.13,72.436c-2.701,0-4.898-1.902-4.898-4.24c0-2.336,2.198-4.239,4.898-4.239s4.898,1.902,4.898,4.239
			c0,1.23,0.997,2.226,2.226,2.226c1.229,0,2.226-0.996,2.226-2.226c0-4.08-3.039-7.509-7.124-8.44v-1.158
			c0-1.229-0.998-2.227-2.227-2.227c-1.229,0-2.227,0.998-2.227,2.227v1.158c-4.084,0.931-7.125,4.36-7.125,8.44
			c0,4.794,4.195,8.693,9.351,8.693c2.701,0,4.898,1.901,4.898,4.239c0,2.337-2.197,4.239-4.898,4.239s-4.898-1.902-4.898-4.239
			c0-1.229-0.996-2.226-2.226-2.226c-1.229,0-2.227,0.996-2.227,2.226c0,4.079,3.041,7.51,7.125,8.441v0.962
			c0,1.229,0.997,2.225,2.227,2.225c1.229,0,2.227-0.997,2.227-2.225v-0.962c4.084-0.931,7.124-4.362,7.124-8.441
			C85.48,76.333,81.286,72.436,76.13,72.436z"/>
	</g>
</g>
<g>
	<g>
		<path fill="#C31F42" d="M100.515,59.192c-2.909-4.532-7.006-8.158-11.849-10.486c-1.109-0.533-2.439-0.066-2.972,1.042
			c-0.533,1.108-0.066,2.438,1.042,2.972c8.439,4.057,13.893,12.725,13.893,22.085c0,4.004-0.987,7.976-2.854,11.485
			c-0.577,1.086-0.166,2.435,0.92,3.012c0.333,0.177,0.691,0.26,1.043,0.26c0.797,0,1.567-0.428,1.968-1.181
			c2.209-4.15,3.376-8.846,3.376-13.577C105.082,69.248,103.502,63.85,100.515,59.192z"/>
	</g>
</g>
<g>
	<g>
		<path fill="#C31F42" d="M79.63,45.863l-0.15,0c-1.229,0-2.227,0.997-2.227,2.226c0,1.229,0.997,2.226,2.227,2.226l0.128,0.001
			c0.003,0,0.007,0,0.011,0c1.225,0,2.22-0.99,2.227-2.216C81.851,46.869,80.858,45.868,79.63,45.863z"/>
	</g>
</g>
<g>
	<g>
		<path fill="#C31F42" d="M65.545,96.89c-8.44-4.058-13.894-12.727-13.894-22.085c0-4.005,0.987-7.977,2.854-11.486
			c0.578-1.085,0.166-2.434-0.92-3.01c-1.085-0.579-2.434-0.167-3.011,0.919c-2.208,4.151-3.376,8.846-3.376,13.577
			c0,5.556,1.58,10.955,4.568,15.612c2.908,4.531,7.005,8.158,11.849,10.486c0.311,0.15,0.64,0.22,0.963,0.22
			c0.829,0,1.625-0.465,2.007-1.262C67.119,98.753,66.652,97.423,65.545,96.89z"/>
	</g>
</g>
<g>
	<g>
		<path fill="#C31F42" d="M72.801,99.294l-0.129-0.001c-1.236-0.001-2.231,0.987-2.236,2.217c-0.006,1.23,0.987,2.23,2.216,2.236
			l0.149,0.001c1.229,0,2.226-0.997,2.226-2.227C75.027,100.291,74.03,99.294,72.801,99.294z"/>
	</g>
</g>
<g>
	<g>
		<path fill="#C31F42" d="M86.25,38.33c-0.271-0.646-0.603-1.254-0.989-1.819h5.796c5.646,0,10.241-4.594,10.241-10.241
			c0-5.647-4.595-10.242-10.241-10.242H73.229c1.133-1.647,1.798-3.641,1.798-5.788C75.027,4.594,70.433,0,64.786,0H10.241
			C4.594,0,0,4.594,0,10.241s4.594,10.242,10.241,10.242H28.07c-1.133,1.647-1.799,3.641-1.799,5.788
			c0,2.146,0.666,4.141,1.799,5.789h-5.806c-5.647,0-10.242,4.594-10.242,10.24c0,3.244,1.517,6.137,3.878,8.015
			c-2.361,1.877-3.878,4.771-3.878,8.015c0,3.244,1.517,6.138,3.878,8.016c-2.361,1.877-3.878,4.771-3.878,8.015
			c0,3.242,1.517,6.137,3.878,8.015c-2.361,1.877-3.878,4.772-3.878,8.014c0,5.647,4.595,10.242,10.242,10.242h26.237
			c6.911,7.393,16.744,12.021,27.64,12.021c20.868,0,37.847-16.978,37.847-37.847C113.988,57.436,102.226,42.764,86.25,38.33z
			 M91.057,20.483c3.192,0,5.788,2.596,5.788,5.788s-2.596,5.789-5.788,5.789H76.808H36.512c-3.192,0-5.788-2.597-5.788-5.789
			s2.596-5.788,5.788-5.788H91.057z M10.241,16.029c-3.192,0-5.789-2.597-5.789-5.788c0-3.192,2.597-5.789,5.789-5.789h54.544
			c3.192,0,5.789,2.597,5.789,5.789c0,3.191-2.597,5.788-5.789,5.788H10.241z M22.264,36.511h54.544
			c0.897,0,1.755,0.208,2.525,0.582c-1.053-0.088-2.117-0.136-3.192-0.136c-10.452,0-19.927,4.259-26.783,11.131H22.264
			c-3.193,0-5.789-2.596-5.789-5.789C16.475,39.108,19.071,36.511,22.264,36.511z M22.264,52.541h23.29
			c-2.527,3.463-4.481,7.369-5.723,11.577H22.264c-3.193,0-5.789-2.596-5.789-5.788C16.475,55.138,19.071,52.541,22.264,52.541z
			 M22.264,68.57H38.81c-0.338,2.029-0.517,4.111-0.517,6.234c0,1.813,0.131,3.597,0.379,5.343H22.264
			c-3.193,0-5.789-2.597-5.789-5.788C16.475,71.167,19.071,68.57,22.264,68.57z M22.264,96.177c-3.193,0-5.789-2.597-5.789-5.789
			s2.596-5.789,5.789-5.789h17.316c1.124,4.189,2.949,8.092,5.342,11.578H22.264z M76.141,108.199
			c-18.414,0-33.395-14.98-33.395-33.395s14.981-33.396,33.395-33.396c18.413,0,33.394,14.981,33.394,33.396
			S94.554,108.199,76.141,108.199z"/>
	</g>
</g>
</svg>
